<svg width="29" height="43" viewBox="0 0 29 43" fill="none" xmlns="http://www.w3.org/2000/svg">
<g clip-path="url(#clip0)">
<path d="M16.0715 41.8128L28.4358 29.4946C28.7536 29.1631 28.9289 28.7205 28.9244 28.2614C28.9199 27.8022 28.7358 27.3631 28.4116 27.038C28.0873 26.7129 27.6487 26.5277 27.1896 26.5219C26.7305 26.5162 26.2873 26.6904 25.955 27.0072L16.6637 36.2657L16.6637 9.29403C16.6784 9.0547 16.6439 8.81491 16.5624 8.5894C16.4809 8.3639 16.3541 8.15747 16.1898 7.98282C16.0256 7.80816 15.8273 7.66898 15.6072 7.57384C15.3871 7.47871 15.1499 7.42963 14.9101 7.42963C14.6703 7.42963 14.4331 7.47871 14.213 7.57384C13.9929 7.66898 13.7946 7.80816 13.6303 7.98282C13.466 8.15747 13.3392 8.3639 13.2577 8.5894C13.1762 8.81491 13.1418 9.0547 13.1564 9.29403L13.1564 36.4039L3.87169 27.0138C3.71289 26.8352 3.51931 26.6908 3.3028 26.5896C3.08628 26.4883 2.85139 26.4323 2.61249 26.425C2.37358 26.4177 2.13569 26.4591 1.91337 26.5469C1.69106 26.6347 1.48899 26.7669 1.31953 26.9355C1.15007 27.104 1.01679 27.3054 0.927836 27.5272C0.838883 27.7491 0.796134 27.9868 0.802201 28.2257C0.80827 28.4646 0.863029 28.6998 0.963126 28.9169C1.06322 29.1339 1.20656 29.3283 1.38435 29.488L13.5842 41.8063C13.7473 41.9698 13.9412 42.0995 14.1546 42.1881C14.368 42.2766 14.5968 42.3222 14.8278 42.3222C15.0589 42.3222 15.2876 42.2766 15.501 42.1881C15.7144 42.0995 15.9083 41.9698 16.0715 41.8063L16.0715 41.8128Z" fill="white"/>
</g>
<defs>
<clipPath id="clip0">
<rect width="42.1137" height="28.078" fill="white" transform="translate(28.9492 0.212341) rotate(90)"/>
</clipPath>
</defs>
</svg>
