<svg id="Calque_1" data-name="Calque 1" xmlns="http://www.w3.org/2000/svg" viewBox="0 0 535.8 165.97"><title>right-bg</title><path d="M221.94,29.1q-4.87,16.21-10.74,30.76T200.07,85.65q-6,13.08-12.13,24.21-5,8.79-8.35,15.34t-5.42,11.18a62.37,62.37,0,0,0-2.93,7.71,19.3,19.3,0,0,0-.88,5,5.06,5.06,0,0,0,.88,3.18,6,6,0,0,0,2.1,1.7,7.75,7.75,0,0,0,2.44.74,19,19,0,0,0,2,.14,22.57,22.57,0,0,0,8.16-1.9,64.92,64.92,0,0,0,10.25-5.37,114.82,114.82,0,0,0,11.57-8.4,141.34,141.34,0,0,0,12-11.08,172.61,172.61,0,0,0,11.57-13.33,136.91,136.91,0,0,0,10.3-15.19,196.82,196.82,0,0,0,12-24.22,51.12,51.12,0,0,1-5.56-22.65q0-7.62,2.39-12.21t6.69-4.59a6.48,6.48,0,0,1,4,1.17,8.51,8.51,0,0,1,2.59,3,15,15,0,0,1,1.42,4,21.91,21.91,0,0,1,.44,4.35A49.32,49.32,0,0,1,264.21,59a104,104,0,0,1-3.81,12.84q-2.49,6.89-6.1,14.56T246,102.11a145,145,0,0,1-10.4,15.38,168.48,168.48,0,0,1-11.92,13.82,152.32,152.32,0,0,1-12.6,11.77,113.57,113.57,0,0,1-12.4,9.08A68.84,68.84,0,0,1,187.26,158a27.15,27.15,0,0,1-9.53,2.1q-7.71,0-12.11-3.52t-4.39-11.23a32.2,32.2,0,0,1,1.12-8.4,62,62,0,0,1,3.32-9.08q2.21-4.87,5.42-10.69t7.43-13.14a319.88,319.88,0,0,1-21.05,25.15A179.74,179.74,0,0,1,133.4,151q-5.76,4.29-10.55,7.18a80.18,80.18,0,0,1-8.74,4.63,37.9,37.9,0,0,1-7.18,2.49,27,27,0,0,1-5.86.74,18.27,18.27,0,0,1-6.59-1.08A12.91,12.91,0,0,1,89.94,162a10.93,10.93,0,0,1-2.63-4.3,16.9,16.9,0,0,1-.83-5.42A29,29,0,0,1,87.94,143a43.26,43.26,0,0,1,4.3-9q3.23-5.07,7.66-11.23l9.28-12.89q4.83-6.73,9.57-13.77t8.5-14a93.59,93.59,0,0,0,6.05-13.48,37.43,37.43,0,0,0,2.3-12.3,38.26,38.26,0,0,0-3.66-16.53A36.71,36.71,0,0,0,121.74,27a48,48,0,0,0-16.07-8.3,71.36,71.36,0,0,0-21.14-2.93,89.62,89.62,0,0,0-29.59,4.69A72.05,72.05,0,0,0,31.75,33.35,58.93,58.93,0,0,0,16.61,52.78a54.54,54.54,0,0,0-5.42,24.08,40,40,0,0,0,2.49,14.4,32.6,32.6,0,0,0,7,11.18,31.38,31.38,0,0,0,11,7.28,38.84,38.84,0,0,0,14.5,2.59A44.38,44.38,0,0,0,63.48,109a52.2,52.2,0,0,0,14.4-8.93A65.7,65.7,0,0,0,89.45,86.78a91.05,91.05,0,0,0,8.6-16.46l4.39,1.57Q93,95.43,77.34,107.48T40.23,119.54a42.74,42.74,0,0,1-16.5-3.07,36.7,36.7,0,0,1-12.7-8.6A38.25,38.25,0,0,1,2.88,94.69,47.49,47.49,0,0,1,0,77.84,57.51,57.51,0,0,1,4.1,55.58,59.36,59.36,0,0,1,15,38.24,69.44,69.44,0,0,1,30.42,25.5a99.57,99.57,0,0,1,17.72-8.59A103.5,103.5,0,0,1,65.94,12a91.93,91.93,0,0,1,15.62-1.51,88.48,88.48,0,0,1,24.22,3.17,56.93,56.93,0,0,1,19.29,9.47,44.35,44.35,0,0,1,12.74,15.58,47.87,47.87,0,0,1,4.59,21.48A66.52,66.52,0,0,1,139,79.91q-3.36,10.8-11.67,23.2-7.6,11.42-13.86,19.82t-10.7,14.5q-4.44,6.1-6.88,10.21t-2.44,6.83a5.74,5.74,0,0,0,2,4.59,8.43,8.43,0,0,0,5.66,1.76q5.18,0,12.55-3.51A102.7,102.7,0,0,0,130.29,147a164.55,164.55,0,0,0,17.34-14.84q8.25-8.1,15.62-16.85t13.92-17.82q6.54-9.07,12.11-17.82t10.15-16.89q4.59-8.16,8.11-15t6-12.21q2.43-5.33,3.71-8.35Zm34.28,39.55a76.51,76.51,0,0,0,3.22-11.32,47.15,47.15,0,0,0,1-8.7c0-.45,0-1.12-.05-2a10.92,10.92,0,0,0-.39-2.54,6.6,6.6,0,0,0-1-2.15,2.18,2.18,0,0,0-1.85-.92c-1.11,0-2,1.1-2.78,3.32a25.55,25.55,0,0,0-1.13,8.1,48.26,48.26,0,0,0,.69,7.77,42.56,42.56,0,0,0,2.32,8.44Z" transform="translate(0.01 -0.03)"/><path d="M317.68,121.09a2.93,2.93,0,0,0,.78.1h.88a21.57,21.57,0,0,0,5-.53,14.49,14.49,0,0,0,4.15-1.71,17.15,17.15,0,0,0,3.66-3.08,29.84,29.84,0,0,0,3.42-4.64l3.51,2.74q-4.68,6.63-9.67,9.27a22.15,22.15,0,0,1-10.54,2.64,14.71,14.71,0,0,1-3.62-.39,64.21,64.21,0,0,1-9,12,52.46,52.46,0,0,1-9.77,8.06,39,39,0,0,1-9.86,4.54,32.9,32.9,0,0,1-9.08,1.42,20.69,20.69,0,0,1-8-1.52,17.71,17.71,0,0,1-6.3-4.34,20.22,20.22,0,0,1-4.1-6.74,24.64,24.64,0,0,1-1.47-8.79,34,34,0,0,1,1.57-10A55.19,55.19,0,0,1,263.52,110a69.52,69.52,0,0,1,6.3-9.62,81.71,81.71,0,0,1,16.51-15.87,54.06,54.06,0,0,1,9-5.27l3.13,4.1A73.57,73.57,0,0,0,288,92.75a86.64,86.64,0,0,0-9.67,12.41,75.92,75.92,0,0,0-7.13,14,39.65,39.65,0,0,0-2.78,14.11q0,6.15,2.73,9.52c1.83,2.25,4.59,3.37,8.3,3.37a21.81,21.81,0,0,0,8.5-1.76,37.8,37.8,0,0,0,8.2-4.78,54.66,54.66,0,0,0,7.72-7.18,97.7,97.7,0,0,0,7-8.84,17.27,17.27,0,0,1-5-4.44,27.13,27.13,0,0,1-3.61-6.35,37.25,37.25,0,0,1-2.2-7.66,47.26,47.26,0,0,1-.73-8.4,29.62,29.62,0,0,1,1.07-8.11,23.83,23.83,0,0,1,3-6.69,15.62,15.62,0,0,1,4.44-4.54,10,10,0,0,1,5.57-1.66,8.72,8.72,0,0,1,4.88,1.42,11.52,11.52,0,0,1,3.61,3.9A20.57,20.57,0,0,1,324.11,87a32.9,32.9,0,0,1,.78,7.33,46.19,46.19,0,0,1-.49,6.44,60.72,60.72,0,0,1-1.41,7.08,66.3,66.3,0,0,1-2.25,7A33,33,0,0,1,317.68,121.09ZM304.39,96.78a43.7,43.7,0,0,0,.49,6.15,37.66,37.66,0,0,0,1.56,6.45,29.09,29.09,0,0,0,2.74,5.81,13.08,13.08,0,0,0,4.1,4.24,52.65,52.65,0,0,0,3-7,67.64,67.64,0,0,0,2-6.88,50.17,50.17,0,0,0,1.17-6.2,44,44,0,0,0,.34-5,28.45,28.45,0,0,0-.48-5.37A19.75,19.75,0,0,0,318,84.73a8.11,8.11,0,0,0-2.05-2.83,4.09,4.09,0,0,0-2.69-1,5.67,5.67,0,0,0-3.61,1.32,10.94,10.94,0,0,0-2.83,3.51A19.13,19.13,0,0,0,305,90.81,27.81,27.81,0,0,0,304.39,96.78Z" transform="translate(0.01 -0.03)"/><path d="M397.17,114a62.88,62.88,0,0,0-3.47,5.81c-1.33,2.45-2.88,5.07-4.64,7.91s-3.69,5.71-5.81,8.64a54.33,54.33,0,0,1-6.93,7.91,36.06,36.06,0,0,1-8.16,5.76,20.35,20.35,0,0,1-9.37,2.25,16,16,0,0,1-5.18-.83,11.52,11.52,0,0,1-4.29-2.59,12.25,12.25,0,0,1-2.93-4.35,15.72,15.72,0,0,1-1.08-6.1,29.24,29.24,0,0,1,1.91-10,84.89,84.89,0,0,1,4.44-10.11q2.54-4.87,5.08-8.93a70.72,70.72,0,0,0,3.71-6.5,10.12,10.12,0,0,0,1.17-4.2,3.36,3.36,0,0,0-.83-2.24,12.79,12.79,0,0,0-2.05-1.91c-.81-.61-1.66-1.27-2.54-1.95a8.89,8.89,0,0,1-2.2-2.49Q351.57,94,349,98q-2.25,3.42-4.88,7.67T339,114l-3.51-2.74,20.89-32.71L359.26,80c-.13.39-.34,1-.64,1.86a8.18,8.18,0,0,0-.44,2.73,6.84,6.84,0,0,0,.34,2.1,4.28,4.28,0,0,0,1.42,1.91q3.9,3.51,6.15,5.42a35.65,35.65,0,0,1,3.27,3,4.49,4.49,0,0,1,1.52,3.76,12.29,12.29,0,0,1-.39,2.83,28.37,28.37,0,0,1-1.32,4q-.93,2.34-2.54,5.52c-1.07,2.11-2.43,4.57-4.05,7.37q-1.47,2.54-2.88,5.13t-2.54,5.22a37.67,37.67,0,0,0-1.81,5.27,20.25,20.25,0,0,0-.68,5.08,7.16,7.16,0,0,0,.53,3,4.15,4.15,0,0,0,1.42,1.71,5.27,5.27,0,0,0,1.9.78,10.36,10.36,0,0,0,2,.2,12.34,12.34,0,0,0,6.39-1.91,33.43,33.43,0,0,0,6.25-4.93,60.35,60.35,0,0,0,6-6.88q2.88-3.87,5.52-7.87t4.88-7.66c1.5-2.44,2.83-4.58,4-6.4Z" transform="translate(0.01 -0.03)"/><path d="M405.27,113.38q5.09-7,10.79-13.53a118.8,118.8,0,0,1,11.58-11.52,60.14,60.14,0,0,1,11.81-8.06,25.73,25.73,0,0,1,11.62-3,13.43,13.43,0,0,1,5.77,1.07,9.63,9.63,0,0,1,5.42,6.5,17.11,17.11,0,0,1,.53,4.15,20.14,20.14,0,0,1-1.12,6.34,29,29,0,0,1-3.42,6.89,35,35,0,0,1-5.81,6.64,39.28,39.28,0,0,1-8.4,5.71,15.78,15.78,0,0,1,1.08,6.15,18.38,18.38,0,0,1-.59,4.55c-.39,1.53-.81,3-1.27,4.54s-.88,3-1.27,4.54a18.67,18.67,0,0,0-.58,4.64,15.23,15.23,0,0,0,.14,2.24,6.68,6.68,0,0,0,.59,2,3.33,3.33,0,0,0,1.37,1.41,5.13,5.13,0,0,0,2.58.54,8.79,8.79,0,0,0,4.5-1.61,38.57,38.57,0,0,0,5.37-4.25,79.73,79.73,0,0,0,5.81-6.1q3-3.47,5.81-7.28t5.47-7.57c1.75-2.5,3.35-4.86,4.78-7.08l3.61,2.74q-5,7.41-9.71,14.16A110.79,110.79,0,0,1,462.26,140a47.84,47.84,0,0,1-9.62,8,18.89,18.89,0,0,1-10.06,3,16.45,16.45,0,0,1-4.25-.59,11.91,11.91,0,0,1-4-1.91,10.09,10.09,0,0,1-3-3.46,10.86,10.86,0,0,1-1.17-5.28,25.46,25.46,0,0,1,1.85-8.69,80.82,80.82,0,0,0,2.44-7.86,28.14,28.14,0,0,0,.88-5.32c-1.37.33-2.82.62-4.34.88a26.45,26.45,0,0,1-4.35.39,13.08,13.08,0,0,1-2.34-.24,8.55,8.55,0,0,1-2.35-.83,5.86,5.86,0,0,1-1.8-1.52,3.73,3.73,0,0,1-.74-2.39,4.71,4.71,0,0,1,.93-2.78,9,9,0,0,1,2.54-2.35,13.62,13.62,0,0,1,3.86-1.61,19.55,19.55,0,0,1,5-.59,14,14,0,0,1,8.69,2.74,28.74,28.74,0,0,0,5.81-6,31.92,31.92,0,0,0,3.56-6.25A29.33,29.33,0,0,0,451.56,92a19.43,19.43,0,0,0,.49-3.56c0-2.15-.39-3.63-1.17-4.45a3.8,3.8,0,0,0-2.83-1.22,15.29,15.29,0,0,0-7,2,46.16,46.16,0,0,0-8,5.57,105,105,0,0,0-8.5,8.11q-4.35,4.59-8.5,9.66t-8,10.26q-3.87,5.18-7.08,9.76-2.94,4.89-5.23,9.09c-1.53,2.8-2.81,5.21-3.86,7.22S390,148,389.44,149s-.91,1.4-1,1.08l-9.67-2.54Q390.29,121.3,402.11,95t24.94-53q1.95-3.9,4.44-8.54t5.37-9.28q2.88-4.63,6.16-9a63.11,63.11,0,0,1,6.74-7.77A33.56,33.56,0,0,1,456.84,2a14.79,14.79,0,0,1,7.22-2,8.91,8.91,0,0,1,6.2,2.15q2.4,2.15,2.4,6.84,0,6.44-3.47,15.67a99.44,99.44,0,0,1-10.25,19.54,149.26,149.26,0,0,1-17,20.95,144.15,144.15,0,0,1-23.78,19.67Zm17.09-37.89a146.34,146.34,0,0,0,20.36-18.9,137.71,137.71,0,0,0,14.07-18.7,83.15,83.15,0,0,0,8.15-16.65A41.51,41.51,0,0,0,467.53,8.4a3.37,3.37,0,0,0-.78-2.34,3.09,3.09,0,0,0-2.44-.88c-2.41,0-4.89,1.19-7.42,3.56s-5.42,6.3-8.65,11.77-6.92,12.69-11.08,21.68-9.13,20.08-14.8,33.3Zm12.5,38.09a4.74,4.74,0,0,0-1.61-1.91,4.14,4.14,0,0,0-2.49-.83,10.23,10.23,0,0,0-5,1.17c-1.43.78-2.15,1.53-2.15,2.25,0,.52.31.85.93,1a6.61,6.61,0,0,0,1.71.25,18.11,18.11,0,0,0,4.69-.59,27,27,0,0,0,3.92-1.34Z" transform="translate(0.01 -0.03)"/><path d="M507.94,72.9a18.06,18.06,0,0,0-1.51,2.35,14.72,14.72,0,0,0-1.27,3.07,14.21,14.21,0,0,0-.54,4.2,21.11,21.11,0,0,0,1,5.57c.69,2.34,1.42,5,2.2,8s1.52,6.32,2.2,9.87a58,58,0,0,1,1,11,43.89,43.89,0,0,1-2.24,14.65,35.23,35.23,0,0,1-6,10.84,60.41,60.41,0,0,0,14.94-11.77,122.1,122.1,0,0,0,14.75-19.48l3.32,2.93a137.49,137.49,0,0,1-9.52,13.72,84.24,84.24,0,0,1-11.67,12.21,59.13,59.13,0,0,1-13.66,8.77,36.84,36.84,0,0,1-15.53,3.37,21.27,21.27,0,0,1-12.35-3.47c-3.36-2.31-5.42-5.78-6.21-10.4l3.52-.68a5.75,5.75,0,0,0,.54,1.9,8.65,8.65,0,0,0,1.71,2.59,10.38,10.38,0,0,0,3.17,2.24,11,11,0,0,0,4.93,1,13.18,13.18,0,0,0,6.93-1.81,18.51,18.51,0,0,0,5.28-4.73,29.35,29.35,0,0,0,3.81-6.69,49,49,0,0,0,2.49-7.76,64.8,64.8,0,0,0,1.32-7.82,66.75,66.75,0,0,0,.39-6.93c0-2.08-.09-4.4-.25-6.93s-.34-5-.54-7.28-.37-4.33-.53-6-.25-2.85-.25-3.37v-.2a33.38,33.38,0,0,0-3,4q-1.77,2.64-3.76,5.77c-1.34,2.08-2.67,4.2-4,6.34s-2.54,4.11-3.61,5.86l-2.64,4.35a17.7,17.7,0,0,0-1,1.81l-3.52-2.74c.07-.06.89-1.46,2.44-4.2s3.62-6.21,6.2-10.4,5.49-8.87,8.74-14,6.6-10.1,10.06-14.9L509.19,71A16.2,16.2,0,0,1,507.94,72.9Z" transform="translate(0.01 -0.03)"/></svg>