<svg id="Calque_1" data-name="Calque 1" xmlns="http://www.w3.org/2000/svg" viewBox="0 0 524.54 149.73"><title>left-bg</title><path d="M231.15,3.62a16.71,16.71,0,0,1,5.52.93,15.26,15.26,0,0,1,4.79,2.63,13.09,13.09,0,0,1,3.37,4.2A12.29,12.29,0,0,1,246.09,17q0,6-3.9,13.77T232,48.83q-6.74,11-12.69,22T208.25,92q-5.12,10.2-9.37,19.23t-7.42,16.19c2.61.32,5.21.58,7.82.78a65.38,65.38,0,0,0,7,.19l.19,5.08c-.45,0-2.16,0-5.12-.05a97.41,97.41,0,0,1-12.06-1.12q-3,7-4.64,10.94c-1.08,2.6-1.61,4-1.61,4.1l-11.58-3.62,5.85-13.37q-6.54-1.47-13.76-3.42t-14.7-4.45q-7.4-2.49-14.86-5.62a155.49,155.49,0,0,1-14.26-6.84q-6.36,7.33-13.77,14.41A115.12,115.12,0,0,1,90,137.15a84.92,84.92,0,0,1-18,9.08A58.18,58.18,0,0,1,52,149.7a65.1,65.1,0,0,1-18.7-2.78,55.63,55.63,0,0,1-16.7-8.11,43.31,43.31,0,0,1-12-13A33.26,33.26,0,0,1,0,108.38,30.43,30.43,0,0,1,2.86,94.81,27.69,27.69,0,0,1,10.77,85a35.4,35.4,0,0,1,11.82-5.91,51.5,51.5,0,0,1,14.6-2A69.15,69.15,0,0,1,49.54,78.3,54.41,54.41,0,0,1,62,82.21a49.51,49.51,0,0,1,11.47,7.25,40.52,40.52,0,0,1,9.18,11.13l-4.3,2.73c-.06-.13-.44-.63-1.12-1.51a32.67,32.67,0,0,0-3-3.22,42.54,42.54,0,0,0-12.6-8,58.76,58.76,0,0,0-10.06-3,62.4,62.4,0,0,0-12.93-1.22,30.58,30.58,0,0,0-12.8,2.49,29.07,29.07,0,0,0-9.13,6.35,25.75,25.75,0,0,0-5.47,8.64,26.09,26.09,0,0,0-1.8,9.28,24.06,24.06,0,0,0,1.85,9.62,28.15,28.15,0,0,0,5,7.86,33.21,33.21,0,0,0,7.42,6.1,51.13,51.13,0,0,0,9,4.35,55.78,55.78,0,0,0,9.67,2.64,54.76,54.76,0,0,0,28.17-2.3,77.63,77.63,0,0,0,16.8-8.4,108.38,108.38,0,0,0,14.89-11.86,186.39,186.39,0,0,0,12.94-13.58,102.7,102.7,0,0,1-12.29-8.62,62.07,62.07,0,0,1-9.71-10,44,44,0,0,1-6.4-11.43,36.57,36.57,0,0,1-2.3-12.93,27.19,27.19,0,0,1,2.1-10.65,27.77,27.77,0,0,1,5.77-8.74,27.17,27.17,0,0,1,8.69-6A26.7,26.7,0,0,1,111.82,37,36.68,36.68,0,0,1,124,39,47.25,47.25,0,0,1,135,44.42a57.2,57.2,0,0,1,9.72,8.25A98.39,98.39,0,0,1,153.22,63q10.93-12.21,21.83-23a274.35,274.35,0,0,1,21-18.89,120.26,120.26,0,0,1,19-12.85Q223.93,3.63,231.15,3.62ZM93.36,69.24a25.14,25.14,0,0,0,2,9.82,37.56,37.56,0,0,0,5.37,8.88,52,52,0,0,0,8.11,8A93.65,93.65,0,0,0,119,103q7.32-8.88,14.94-17.87t15.43-17.77A100.71,100.71,0,0,0,142.29,59a52,52,0,0,0-7.67-6.69,35.32,35.32,0,0,0-8.3-4.4,26.51,26.51,0,0,0-18.46.2A23.3,23.3,0,0,0,100.25,53a21.92,21.92,0,0,0-5,7.23A22.34,22.34,0,0,0,93.36,69.24Zm83.5,55.65q-1.38-4.4-3.67-10.65t-5.37-13.43q-3.07-7.17-6.93-14.69a142,142,0,0,0-8.43-14.34q-6.74,7.62-14,16t-15,17.87a133.36,133.36,0,0,0,14.31,6.88q7.47,3.07,14.55,5.47t13.47,4.15Q172.18,123.89,176.86,124.89ZM156.25,67.56a153.35,153.35,0,0,1,8.4,14.55q3.81,7.53,6.88,14.75T177,110.58q2.4,6.49,4.15,11.47,11.43-24.9,24.42-48.82A506.26,506.26,0,0,1,234.77,26a42.79,42.79,0,0,0,3.76-6.49A11.88,11.88,0,0,0,239.65,15,5.18,5.18,0,0,0,237,10.29a11.3,11.3,0,0,0-6-1.61q-10.85,0-29.54,14.79T156.25,67.58Z" transform="translate(0.03 0.03)"/><path d="M287.11,98.05a22,22,0,0,1-6.4-2.49,16,16,0,0,1-4.34-3.66,14,14,0,0,1-2.44-4.35,13.76,13.76,0,0,1-.78-4.54q0-4.87,2.73-7.57a9.34,9.34,0,0,1,6.84-2.68,7.76,7.76,0,0,1,4.68,1.41,11,11,0,0,1,3.23,3.76,18.9,18.9,0,0,1,1.85,5.42,34.33,34.33,0,0,1,.59,6.4c0,1.5-.07,3-.2,4.44a37.05,37.05,0,0,1-.68,4.45,74.92,74.92,0,0,1-6.89,19.09,67.45,67.45,0,0,1-10.25,14.65,44.07,44.07,0,0,1-12.16,9.37,27.72,27.72,0,0,1-12.6,3.27,26.49,26.49,0,0,1-7.95-1.17,16.77,16.77,0,0,1-6.65-3.9,18.89,18.89,0,0,1-4.54-7.18,31.61,31.61,0,0,1-1.66-11,72.45,72.45,0,0,1,3.18-19.33,153,153,0,0,1,10.79-26.36,420.84,420.84,0,0,1,22-38q4.69-7.12,9.86-14a130.87,130.87,0,0,1,10.37-12.19,58.68,58.68,0,0,1,10.36-8.64A18.23,18.23,0,0,1,305.76,0c.7,0,1.4.1,2.1.2a9.06,9.06,0,0,1,3.08,1,8.25,8.25,0,0,1,2.78,2.54,8,8,0,0,1,1.22,4.74,29.11,29.11,0,0,1-1.9,9.13,76.58,76.58,0,0,1-5.67,12.31,146.82,146.82,0,0,1-9.27,14.26,157.29,157.29,0,0,1-12.7,15.18,183.91,183.91,0,0,1-15.94,14.89,160.68,160.68,0,0,1-19,13.67q-3.42,7.42-5.71,13.43t-3.67,10.84a73.46,73.46,0,0,0-2,8.55,42.12,42.12,0,0,0-.58,6.44,16.92,16.92,0,0,0,1,6.3,9.62,9.62,0,0,0,2.78,3.91,10.77,10.77,0,0,0,4,2A18.42,18.42,0,0,0,260,137.6a37.35,37.35,0,0,0,8.25-6.1,55.71,55.71,0,0,0,7.18-8.45,84.65,84.65,0,0,0,5.71-9.33,78,78,0,0,0,4-8.78A34.46,34.46,0,0,0,287.11,98.05Zm-32.52-19a157.2,157.2,0,0,0,16.55-13,177.61,177.61,0,0,0,13.72-13.72A155.89,155.89,0,0,0,295.7,38.85a123,123,0,0,0,7.82-12.35,73.71,73.71,0,0,0,4.73-10.3,23.14,23.14,0,0,0,1.61-7.38c0-1.69-.61-2.54-1.85-2.54q-3.51,0-8.45,3.81T288.14,22.5a260.69,260.69,0,0,0-14.85,22.39Q265,58.79,254.59,79Zm33.2,14c.07-.58.12-1.17.15-1.75s0-1.14,0-1.66a22,22,0,0,0-1.37-8.5c-.91-2.15-2.21-3.23-3.9-3.22a7.3,7.3,0,0,0-1.32.14,3.82,3.82,0,0,0-1.47.69,4.16,4.16,0,0,0-1.22,1.51,5.85,5.85,0,0,0-.49,2.54A8.58,8.58,0,0,0,281,89.39,15.52,15.52,0,0,0,287.79,93Z" transform="translate(0.03 0.03)"/><path d="M356.74,115.82a2.93,2.93,0,0,0,.78.1h.88a21.57,21.57,0,0,0,5-.53,14.1,14.1,0,0,0,4.15-1.71,18,18,0,0,0,3.66-3.08,29.84,29.84,0,0,0,3.42-4.64l3.52,2.74q-4.69,6.63-9.67,9.27a22.19,22.19,0,0,1-10.55,2.64,14.63,14.63,0,0,1-3.61-.39,64.21,64.21,0,0,1-9,12,52.4,52.4,0,0,1-9.76,8.06,38.93,38.93,0,0,1-9.87,4.54,32.9,32.9,0,0,1-9.08,1.42,20.69,20.69,0,0,1-8-1.52,17.71,17.71,0,0,1-6.3-4.34,20.39,20.39,0,0,1-4.1-6.74,25.08,25.08,0,0,1-1.46-8.79,33.63,33.63,0,0,1,1.56-10,55.89,55.89,0,0,1,4.25-10.06,68,68,0,0,1,6.3-9.62,79,79,0,0,1,7.81-8.64,82.24,82.24,0,0,1,8.69-7.23,53,53,0,0,1,9-5.27l3.12,4.1A73.57,73.57,0,0,0,327,87.5a85.56,85.56,0,0,0-9.64,12.39,75,75,0,0,0-7.13,14A39.35,39.35,0,0,0,307.46,128q0,6.15,2.74,9.52t8.26,3.34a21.73,21.73,0,0,0,8.49-1.76,37.63,37.63,0,0,0,8.21-4.78,54,54,0,0,0,7.71-7.18,97.7,97.7,0,0,0,7-8.84,17.27,17.27,0,0,1-5-4.44,27.7,27.7,0,0,1-3.61-6.35,37.25,37.25,0,0,1-2.2-7.66,47.26,47.26,0,0,1-.73-8.4,29.62,29.62,0,0,1,1.07-8.11,23.83,23.83,0,0,1,3-6.69,15.65,15.65,0,0,1,4.45-4.54,10,10,0,0,1,5.56-1.66,8.75,8.75,0,0,1,4.89,1.42,11.62,11.62,0,0,1,3.61,3.9,20.55,20.55,0,0,1,2.24,5.91,32.27,32.27,0,0,1,.79,7.33,47.76,47.76,0,0,1-.49,6.44,62.91,62.91,0,0,1-1.42,7.08,68.65,68.65,0,0,1-2.24,7A33.56,33.56,0,0,1,356.74,115.82ZM343.46,91.51a42.26,42.26,0,0,0,.49,6.15,35.88,35.88,0,0,0,1.56,6.45,29.05,29.05,0,0,0,2.73,5.81,13.28,13.28,0,0,0,4.1,4.24,49.15,49.15,0,0,0,3-7,65.16,65.16,0,0,0,2-6.88,50.2,50.2,0,0,0,1.18-6.2,44,44,0,0,0,.34-5,27.66,27.66,0,0,0-.49-5.37,19.75,19.75,0,0,0-1.32-4.25,7.85,7.85,0,0,0-2-2.83,4,4,0,0,0-2.69-1A5.67,5.67,0,0,0,348.75,77a10.94,10.94,0,0,0-2.83,3.51,19.86,19.86,0,0,0-1.81,5.08A27.85,27.85,0,0,0,343.46,91.51Z" transform="translate(0.03 0.03)"/><path d="M420.12,121.1q-4.5,5.27-8.89,9.71a71.23,71.23,0,0,1-8.74,7.62,42.25,42.25,0,0,1-8.64,5,22.18,22.18,0,0,1-8.69,1.81,16.25,16.25,0,0,1-6.7-1.35,15.4,15.4,0,0,1-5.18-3.71,16.21,16.21,0,0,1-3.37-5.86,24.08,24.08,0,0,1-1.17-7.76,35.64,35.64,0,0,1,3-13.87,79.44,79.44,0,0,1,7.52-13.87A111.84,111.84,0,0,1,389.32,86q5.52-6.06,10.5-10.74L404,78.22q-3.51,5.18-7.86,11.72T388,103.46a105.76,105.76,0,0,0-6.49,14,36.81,36.81,0,0,0-2.64,12.94,14.31,14.31,0,0,0,1.51,6.83c1,1.89,2.94,2.83,5.81,2.83q4.69,0,10.31-3.71A73.44,73.44,0,0,0,408,126.68a160.18,160.18,0,0,0,11.82-13.42q5.9-7.47,11.18-15.09t9.62-14.55q4.34-6.93,7.08-11.82l7.13,3.52q-5.67,11.13-10.89,20.75t-9.28,17.28q-4,7.68-6.45,13.33t-2.39,9a4,4,0,0,0,.59,2.24,2.06,2.06,0,0,0,1.85.88c2.41.07,5.07-1,8-3.12a61.4,61.4,0,0,0,8.79-8.11,128.36,128.36,0,0,0,8.64-10.68q4.26-5.81,7.67-10.89l3.51,2.74q-.58,1-2.44,4t-4.59,6.93q-2.73,3.92-6.25,8.21a74.5,74.5,0,0,1-7.42,7.86,41.39,41.39,0,0,1-8.1,5.86,17.28,17.28,0,0,1-8.3,2.29,11.12,11.12,0,0,1-4.55-.88,10.08,10.08,0,0,1-3.36-2.34,10.53,10.53,0,0,1-2.15-3.42,11.06,11.06,0,0,1-.78-4.1,21,21,0,0,1,.83-5.57A42.66,42.66,0,0,1,420.12,121.1Z" transform="translate(0.03 0.03)"/><path d="M481.15,61.82l3.47-5.76Q487.1,52,490.48,47t7.32-10a73.2,73.2,0,0,1,7.77-8.55L510,31.07q-4.2,6.93-8.59,14.7t-8.69,16.06h31.83l-2,5.06H490q-4.4,8.79-8.25,17.48T475,101a131.91,131.91,0,0,0-4.59,14.8,51.73,51.73,0,0,0-1.66,12q0,6.35,2.93,9.13a10.12,10.12,0,0,0,7.23,2.78,15.64,15.64,0,0,0,7.81-2.29,44.61,44.61,0,0,0,7.86-5.81,76.38,76.38,0,0,0,7.33-7.72q3.46-4.2,6.15-7.91c1.79-2.47,3.27-4.64,4.44-6.49s1.89-3,2.15-3.47l3.61,2.74q-3.42,5.65-7.71,12A88.84,88.84,0,0,1,501,132.49a52.07,52.07,0,0,1-11.38,9,25.93,25.93,0,0,1-13.28,3.56,17.63,17.63,0,0,1-7.67-1.56,15.79,15.79,0,0,1-5.52-4.34,18.94,18.94,0,0,1-3.36-6.6,29.47,29.47,0,0,1-1.13-8.3,52.59,52.59,0,0,1,.93-8.3,109.26,109.26,0,0,1,3.17-12.74q2.25-7.38,6-16.55a198.48,198.48,0,0,1,9.53-19.77H462.11l2-5.08Z" transform="translate(0.03 0.03)"/></svg>