<svg width="24" height="24" xmlns="http://www.w3.org/2000/svg">

 <g>
  <title>background</title>
  <rect fill="none" id="canvas_background" height="402" width="582" y="-1" x="-1"/>
 </g>
 <g>
  <title>Layer 1</title>
  <path fill="#186bf0" id="svg_1" d="m12,0c-6.628,0 -12,5.373 -12,12s5.372,12 12,12s12,-5.372999 12,-12s-5.372,-12 -12,-12zm9.885,11.441c-2.575001,-0.422 -4.943001,-0.445 -7.103001,-0.073c-0.243999,-0.563 -0.497,-1.125 -0.766999,-1.68c2.31,-1 4.165,-2.358 5.547999,-4.082c1.35,1.594 2.197001,3.619 2.322001,5.835zm-3.842001,-7.282c-1.205,1.554 -2.867999,2.783 -4.985999,3.68c-1.016,-1.861 -2.178,-3.676 -3.488,-5.438c0.778999,-0.197 1.591,-0.314 2.431,-0.314c2.275,0 4.368,0.779 6.042999,2.072zm-10.515999,-0.993c1.331,1.742 2.511,3.538 3.537,5.381c-2.43,0.715 -5.331,1.082 -8.684,1.105c0.692,-2.835001 2.601,-5.193 5.147,-6.486001zm-5.44,8.834l0.013,-0.256c3.849,-0.005 7.169,-0.448001 9.95,-1.322001c0.233,0.475 0.455999,0.952 0.67,1.432c-3.38,1.057 -6.165,3.222 -8.337,6.48c-1.432,-1.719 -2.296,-3.927 -2.296,-6.334zm3.829,7.809999c1.969,-3.087999 4.482,-5.098 7.598,-6.026999c0.928,2.419999 1.609,4.910001 2.043,7.46c-3.349,1.291 -6.953,0.666 -9.641,-1.433001zm11.586001,0.43c-0.438002,-2.353001 -1.08,-4.653 -1.920001,-6.896999c1.876,-0.265 3.94,-0.196 6.199,0.195999c-0.437,2.786001 -2.028,5.192001 -4.278999,6.701z"/>
 </g>
</svg>